# xmcd
#
# Track frame offsets: 
#        187
#        16450
#        34100
#        54180
#        59250
#
# Disc length: 854 seconds
#
# Revision: 0
# Processed by: cddbd v1.5.2PL0 Copyright (c) Steve Scherf et al.
# Submitted via: ExactAudioCopyFreeDBPlugin 1.0
#
DISCID=36035405
DTITLE=Troy Johnson - Good (Promo CDS)
DYEAR=1993
DGENRE=Funk
TTITLE0=Good (Radio Edit)
TTITLE1=Good (Radio Edit With Extended Intro)
TTITLE2=Good [CD Version)
TTITLE3=Good (Radio Spot)
TTITLE4=Good (Radio Spot For Local Retailer Advertising)
EXTD=
EXTT0=
EXTT1=
EXTT2=
EXTT3=
EXTT4=
PLAYORDER=
